<?xml version="1.0" encoding="iso-8859-1"?>
<!-- Generator: Adobe Illustrator 17.1.0, SVG Export Plug-In . SVG Version: 6.00 Build 0)  -->
<svg fill="#de004e" version="1.1" id="Capa_1" xmlns="http://www.w3.org/2000/svg" xmlns:xlink="http://www.w3.org/1999/xlink" x="0px"
	y="0px" viewBox="0 0 275.183 275.183" style="enable-background:new 0 0 275.183 275.183;" xml:space="preserve">
	<path id="XMLID_16_" d="M255.559,114.521l-45.155,45.155c-4.147,4.147-9.674,6.433-15.561,6.434c-5.889,0-11.416-2.285-15.565-6.435
	l-5.072-5.072c-4.296-4.296-4.296-11.261,0-15.557c4.297-4.295,11.26-4.295,15.557,0l5.073,5.073l45.167-45.155
	c17.589-17.589,17.588-46.209,0-63.8c-17.592-17.588-46.213-17.591-63.801-0.001L131.046,80.32l24.117,24.126l24.868-24.868
	c4.297-4.295,11.26-4.295,15.557,0c4.296,4.296,4.296,11.261,0,15.557l-60.045,60.045l24.115,24.116
	c4.147,4.147,6.432,9.675,6.432,15.563s-2.284,11.415-6.433,15.563l-45.154,45.155c-12.632,12.631-29.486,19.588-47.455,19.588
	c-0.001,0,0,0-0.001,0c-17.97,0-34.824-6.957-47.456-19.59C6.958,242.941,0,226.088,0,208.118c0-17.97,6.957-34.823,19.589-47.456
	l45.155-45.155c4.147-4.147,9.673-6.433,15.561-6.434c5.889,0,11.417,2.285,15.565,6.435l5.072,5.073
	c4.296,4.296,4.295,11.261,0,15.556c-4.296,4.295-11.261,4.295-15.556-0.001l-5.073-5.072l-45.167,45.155
	c-17.589,17.589-17.589,46.209,0,63.799c17.59,17.59,46.211,17.592,63.8,0.002l45.155-45.156l-24.116-24.126l-24.872,24.872
	c-4.296,4.295-11.261,4.295-15.557,0c-4.295-4.296-4.295-11.261,0-15.557l32.641-32.641c0.003-0.004,0.007-0.008,0.011-0.011
	c0.003-0.004,0.007-0.007,0.01-0.01l27.387-27.388L115.49,95.887c-4.147-4.147-6.432-9.675-6.432-15.563s2.285-11.415,6.433-15.563
	l45.154-45.155C173.276,6.976,190.13,0.019,208.1,0.019c0.001,0,0,0,0.001,0c17.971,0,34.824,6.957,47.456,19.59
	C281.724,45.776,281.725,88.353,255.559,114.521z" />
	<g>
	</g>
	<g>
	</g>
	<g>
	</g>
	<g>
	</g>
	<g>
	</g>
	<g>
	</g>
	<g>
	</g>
	<g>
	</g>
	<g>
	</g>
	<g>
	</g>
	<g>
	</g>
	<g>
	</g>
	<g>
	</g>
	<g>
	</g>
	<g>
	</g>
</svg>