<svg viewBox="0 0 40 33" xmlns="http://www.w3.org/2000/svg">
    <path
        d="M36.3636 0H3.63636C1.63636 0 0 1.63636 0 3.63636V25.4545C0 27.4545 1.63636 29.0909 3.63636 29.0909H12.7273V32.7273H27.2727V29.0909H36.3636C38.3636 29.0909 40 27.4545 40 25.4545V3.63636C40 1.63636 38.3636 0 36.3636 0ZM36.3636 25.4545H3.63636V3.63636H36.3636V25.4545ZM32.7273 9.09091H12.7273V12.7273H32.7273V9.09091ZM32.7273 16.3636H12.7273V20H32.7273V16.3636ZM10.9091 9.09091H7.27273V12.7273H10.9091V9.09091ZM10.9091 16.3636H7.27273V20H10.9091V16.3636Z"
        fill="#de004e" />
</svg>